<svg xmlns="http://www.w3.org/2000/svg" viewBox="0 0 512 512">
  <!-- Rounded-square base in Stratum v2 near-black (#08080b). 112 radius
       matches iOS' 22% radius for a 512px artwork. -->
  <rect width="512" height="512" rx="112" fill="#08080b"/>
  <!-- Finds logomark, cream — paths sourced from public/logo.black.svg.
       Translated + scaled to center inside the 512px artboard:
         logo viewBox is 344.3 × 445.26 (~3:4)
         scale = 360/445.26 ≈ 0.8085
         tx = (512 - 344.3*0.8085)/2 ≈ 116.8
         ty = (512 - 360)/2 = 76 -->
  <g transform="translate(116.8 76) scale(0.8085)" fill="#f4f3ef">
    <path d="M132.54,251.59c-16.58.77-27.67,10.62-29.81,25.26l-.16,59.34c-.16,57.56-43.85,105.11-102.32,109.08l.49-182.63c.16-58.77,48.13-106.96,107.15-107.11l190.27-.5c-9.09,58.87-56.76,97.78-113.81,97.14l-51.82-.58Z"/>
    <path d="M114.5,110.4c-52.12-.19-93.19,30.71-113.26,78.28L0,105.66C1.16,50.56,42.51,1.4,100.17,1.13l244.13-1.13c-6.33,62.58-57.19,109.84-119.63,110.04l-110.17.36Z"/>
  </g>
</svg>
