<?xml version="1.0" encoding="UTF-8"?>
<svg id="Layer_2" data-name="Layer 2" xmlns="http://www.w3.org/2000/svg" width="344.3" height="445.26" viewBox="0 0 344.3 445.26">
  <g id="Layer_1-2" data-name="Layer 1">
    <g>
      <path d="M132.54,251.59c-16.58.77-27.67,10.62-29.81,25.26l-.16,59.34c-.16,57.56-43.85,105.11-102.32,109.08l.49-182.63c.16-58.77,48.13-106.96,107.15-107.11l190.27-.5c-9.09,58.87-56.76,97.78-113.81,97.14l-51.82-.58Z"/>
      <path d="M114.5,110.4c-52.12-.19-93.19,30.71-113.26,78.28L0,105.66C1.16,50.56,42.51,1.4,100.17,1.13l244.13-1.13c-6.33,62.58-57.19,109.84-119.63,110.04l-110.17.36Z"/>
    </g>
  </g>
</svg>